# xmcd
#
# Track frame offsets: 
#        150
#        17477
#        46193
#        77696
#        104362
#        129780
#        152959
#        175379
#        202120
#        255595
#
# Disc length: 3782 seconds
#
# Revision: 0
# Processed by: cddbd v1.5.2PL0 Copyright (c) Steve Scherf et al.
# Submitted via: ExactAudioCopyFreeDBPlugin 1.0
#
DISCID=790ec40a
DTITLE=Hai Phuong - Tieng Xua
DYEAR=1900
DGENRE=
TTITLE0=Hon que
TTITLE1=Lang toi
TTITLE2=Mua tren pho hue
TTITLE3=Chieu dong que
TTITLE4=Dat nuoc loi ru
TTITLE5=Ben doi
TTITLE6=Quan gam dau lang
TTITLE7=Dem tan ben ngu
TTITLE8=Hon vong phu
TTITLE9=Tieng xua
EXTD=
EXTT0=
EXTT1=
EXTT2=
EXTT3=
EXTT4=
EXTT5=
EXTT6=
EXTT7=
EXTT8=
EXTT9=
PLAYORDER=
